<svg xmlns="http://www.w3.org/2000/svg" width="48" height="48"><defs><style>.cls-1{fill:#bec4cc}.cls-5{fill:none;stroke:#474c54;stroke-linecap:round;stroke-linejoin:round;stroke-width:2px}</style></defs><g id="_12-Email-face" data-name="12-Email-face"><path class="cls-1" d="M47 13v28a4.025 4.025 0 0 1-1.17 2.83L39 37 28 26l-.28-.43z"/><path d="m39 37 6.83 6.83A4.025 4.025 0 0 1 43 45H5a4.025 4.025 0 0 1-2.83-1.17L9 37l11-11 .25-.39L24 28l3.72-2.43.28.43z" style="fill:#a4b0c0"/><path class="cls-1" d="M20.25 25.61 20 26 9 37l-6.83 6.83A4.025 4.025 0 0 1 1 41V15a3.944 3.944 0 0 1 .18-1.19L2 14z"/><path d="M47 13 27.72 25.57 24 28l-3.75-2.39L2 14l-.82-.19A4 4 0 0 1 5 11h37c4 0 5 2 5 2z" style="fill:#d0d7df"/><circle cx="35" cy="14" r="12" style="fill:#fed049"/><path class="cls-5" d="M24 28 2 14M19 11H5a4 4 0 0 0-4 4v26a4 4 0 0 0 4 4h38a4 4 0 0 0 4-4V14a12 12 0 1 0-4.074 9.01M9 37l11-11"/><path class="cls-5" d="M29 11a2 2 0 0 1 4 0M37 11a2 2 0 0 1 4 0M41 15a6 6 0 0 1-12 0"/></g></svg>